<svg width="24" height="24" viewBox="0 0 24 24" fill="none" xmlns="http://www.w3.org/2000/svg">
<path opacity="0.4" d="M18 18.86H17.24C16.44 18.86 15.68 19.17 15.12 19.73L13.41 21.42C12.63 22.19 11.36 22.19 10.58 21.42L8.87 19.73C8.31 19.17 7.54 18.86 6.75 18.86H6C4.34 18.86 3 17.53 3 15.89V4.97998C3 3.33998 4.34 2.01001 6 2.01001H18C19.66 2.01001 21 3.33998 21 4.97998V15.89C21 17.52 19.66 18.86 18 18.86Z" fill="#090629"/>
<path d="M10.38 14.51H7.7C7.26 14.51 6.85 14.3 6.59 13.94C6.34 13.6 6.27999 13.18 6.39999 12.78C6.74999 11.71 7.61 11.13 8.37 10.61C9.17 10.07 9.62 9.73002 9.62 9.15002C9.62 8.63002 9.19999 8.21002 8.67999 8.21002C8.15999 8.21002 7.74001 8.63002 7.74001 9.15002C7.74001 9.56002 7.40001 9.90002 6.99001 9.90002C6.58001 9.90002 6.24001 9.56002 6.24001 9.15002C6.24001 7.81002 7.32999 6.71002 8.67999 6.71002C10.03 6.71002 11.12 7.80002 11.12 9.15002C11.12 10.56 10.06 11.28 9.21001 11.86C8.68001 12.22 8.17999 12.56 7.92999 13.01H10.37C10.78 13.01 11.12 13.35 11.12 13.76C11.12 14.17 10.79 14.51 10.38 14.51Z" fill="#090629"/>
<path d="M16.04 14.51C15.63 14.51 15.29 14.17 15.29 13.76V13.07H13.33C13.33 13.07 13.33 13.07 13.32 13.07C12.83 13.07 12.38 12.81 12.13 12.39C11.88 11.96 11.88 11.43 12.13 11.01C12.81 9.84001 13.6 8.50997 14.32 7.34997C14.64 6.83997 15.25 6.61002 15.82 6.77002C16.39 6.94002 16.79 7.45999 16.78 8.05999V11.58H17C17.41 11.58 17.75 11.92 17.75 12.33C17.75 12.74 17.41 13.08 17 13.08H16.79V13.77C16.79 14.18 16.46 14.51 16.04 14.51ZM15.29 8.64001C14.7 9.60001 14.09 10.63 13.54 11.57H15.29V8.64001Z" fill="#090629"/>
</svg>
