<svg width="30" height="30" viewBox="0 0 30 30" fill="none" xmlns="http://www.w3.org/2000/svg">
<path d="M26.3625 8.72499C25.3 7.54999 23.525 6.96249 20.95 6.96249H20.65V6.91249C20.65 4.81249 20.65 2.21249 15.95 2.21249H14.05C9.34999 2.21249 9.34999 4.82499 9.34999 6.91249V6.97499H9.04998C6.46249 6.97499 4.69999 7.56249 3.63749 8.73749C2.39999 10.1125 2.43749 11.9625 2.56249 13.225L2.57499 13.3125L2.69999 14.625C2.71249 14.6375 2.73749 14.6625 2.76249 14.675C3.17499 14.95 3.59999 15.225 4.04999 15.475C4.22499 15.5875 4.41249 15.6875 4.59999 15.7875C6.73749 16.9625 9.08749 17.75 11.475 18.1375C11.5875 19.3125 12.1 20.6875 14.8375 20.6875C17.575 20.6875 18.1125 19.325 18.2 18.1125C20.75 17.7 23.2125 16.8125 25.4375 15.5125C25.5125 15.475 25.5625 15.4375 25.625 15.4C26.2 15.075 26.7375 14.725 27.2625 14.3375C27.2875 14.325 27.3125 14.3 27.325 14.275L27.375 13.825L27.4375 13.2375C27.45 13.1625 27.45 13.1 27.4625 13.0125C27.5625 11.75 27.5375 10.025 26.3625 8.72499ZM16.3625 17.2875C16.3625 18.6125 16.3625 18.8125 14.825 18.8125C13.2875 18.8125 13.2875 18.575 13.2875 17.3V15.725H16.3625V17.2875ZM11.1375 6.96249V6.91249C11.1375 4.78749 11.1375 3.99999 14.05 3.99999H15.95C18.8625 3.99999 18.8625 4.79999 18.8625 6.91249V6.97499H11.1375V6.96249Z" fill="#402EFF"/>
<path opacity="0.4" d="M25.625 15.375C25.5625 15.4125 25.5 15.45 25.4375 15.4875C23.2125 16.7875 20.75 17.6625 18.2 18.0875C18.1 19.2875 17.575 20.6625 14.8375 20.6625C12.1 20.6625 11.575 19.3 11.475 18.1125C9.08751 17.7375 6.73751 16.95 4.60001 15.7625C4.41251 15.6625 4.22501 15.5625 4.05001 15.45C3.60001 15.2 3.17501 14.925 2.76251 14.65C2.73751 14.6375 2.71251 14.6125 2.70001 14.6L3.46251 22.7375C3.72501 25.225 4.75001 27.7875 10.25 27.7875H19.775C25.275 27.7875 26.3 25.225 26.5625 22.725L27.35 14.25C27.3375 14.275 27.3125 14.3 27.2875 14.3125C26.75 14.7 26.2 15.0625 25.625 15.375Z" fill="#402EFF"/>
</svg>
