<svg width="24" height="24" viewBox="0 0 24 24" fill="none" xmlns="http://www.w3.org/2000/svg">
<path d="M20.89 13V14H20.02C19.28 14 18.68 14.6 18.68 15.35V15.65C18.68 16.4 18.08 17 17.33 17C16.59 17 15.99 16.4 15.99 15.65V15.35C15.99 14.6 15.38 14 14.64 14C13.9 14 13.3 14.6 13.3 15.35V15.65C13.3 16.4 12.69 17 11.95 17C11.21 17 10.6 16.4 10.6 15.65V15.35C10.6 14.6 10 14 9.26 14C8.52 14 7.91 14.6 7.91 15.35V15.65C7.91 16.4 7.31 17 6.57 17C5.82 17 5.22 16.4 5.22 15.65V15.33C5.22 14.59 4.63 13.99 3.9 13.98H3.11V13C3.11 11.62 4.15 10.45 5.56 10.11C5.84 10.04 6.13 10 6.44 10H17.56C17.87 10 18.16 10.04 18.44 10.11C19.85 10.45 20.89 11.62 20.89 13Z" fill="#090629"/>
<path opacity="0.4" d="M18.44 7.17V10.11C18.16 10.04 17.87 10 17.56 10H6.44C6.13 10 5.84 10.04 5.56 10.11V7.17C5.56 5.97 6.64 5 7.98 5H16.02C17.36 5 18.44 5.97 18.44 7.17Z" fill="#090629"/>
<path d="M8.75 3.54999V5.00999H7.98C7.72 5.00999 7.48 5.03999 7.25 5.09999V3.54999C7.25 3.19999 7.59 2.89999 8 2.89999C8.41 2.89999 8.75 3.19999 8.75 3.54999Z" fill="#090629"/>
<path d="M16.75 3.32999V5.09999C16.52 5.02999 16.28 4.99999 16.02 4.99999H15.25V3.32999C15.25 2.91999 15.59 2.57999 16 2.57999C16.41 2.57999 16.75 2.91999 16.75 3.32999Z" fill="#090629"/>
<path d="M12.75 2.82V5H11.25V2.82C11.25 2.37 11.59 2 12 2C12.41 2 12.75 2.37 12.75 2.82Z" fill="#090629"/>
<path opacity="0.4" d="M21.25 20.5H20.89V14H20.02C19.28 14 18.68 14.6 18.68 15.35V15.65C18.68 16.4 18.08 17 17.33 17C16.59 17 15.99 16.4 15.99 15.65V15.35C15.99 14.6 15.38 14 14.64 14C13.9 14 13.3 14.6 13.3 15.35V15.65C13.3 16.4 12.69 17 11.95 17C11.21 17 10.6 16.4 10.6 15.65V15.35C10.6 14.6 10 14 9.26 14C8.52 14 7.91 14.6 7.91 15.35V15.65C7.91 16.4 7.31 17 6.57 17C5.82 17 5.22 16.4 5.22 15.65V15.33C5.22 14.59 4.63 13.99 3.9 13.98H3.11V20.5H2.75C2.34 20.5 2 20.84 2 21.25C2 21.66 2.34 22 2.75 22H3.11H20.89H21.25C21.66 22 22 21.66 22 21.25C22 20.84 21.66 20.5 21.25 20.5Z" fill="#090629"/>
</svg>
