<svg width="30" height="30" viewBox="0 0 30 30" fill="none" xmlns="http://www.w3.org/2000/svg">
<path d="M18.125 13.4375H10.625C10.1125 13.4375 9.6875 13.0125 9.6875 12.5C9.6875 11.9875 10.1125 11.5625 10.625 11.5625H18.125C18.6375 11.5625 19.0625 11.9875 19.0625 12.5C19.0625 13.0125 18.6375 13.4375 18.125 13.4375Z" fill="#090629"/>
<path d="M14.375 17.1875H10.625C10.1125 17.1875 9.6875 16.7625 9.6875 16.25C9.6875 15.7375 10.1125 15.3125 10.625 15.3125H14.375C14.8875 15.3125 15.3125 15.7375 15.3125 16.25C15.3125 16.7625 14.8875 17.1875 14.375 17.1875Z" fill="#090629"/>
<path opacity="0.4" d="M14.375 26.25C20.9334 26.25 26.25 20.9334 26.25 14.375C26.25 7.81662 20.9334 2.5 14.375 2.5C7.81662 2.5 2.5 7.81662 2.5 14.375C2.5 20.9334 7.81662 26.25 14.375 26.25Z" fill="#090629"/>
<path d="M26.625 27.5C26.4 27.5 26.175 27.4125 26.0125 27.25L23.6875 24.925C23.35 24.5875 23.35 24.0375 23.6875 23.6875C24.025 23.35 24.575 23.35 24.925 23.6875L27.25 26.0125C27.5875 26.35 27.5875 26.9 27.25 27.25C27.075 27.4125 26.85 27.5 26.625 27.5Z" fill="#090629"/>
</svg>
