<svg width="154" height="95" viewBox="0 0 154 95" fill="none" xmlns="http://www.w3.org/2000/svg">
<path d="M79.5308 40.1395C79.5757 35.5502 78.4122 31.8182 76.9322 31.8037C75.4521 31.7893 74.2159 35.4979 74.1711 40.0871C74.1262 44.6764 75.2897 48.4085 76.7697 48.4229C78.2498 48.4374 79.486 44.7288 79.5308 40.1395Z" fill="#402EFF"/>
<path d="M70.947 39.0972C73.4661 35.2608 74.5052 31.4922 73.268 30.6798C72.0307 29.8674 68.9856 32.3188 66.4666 36.1552C63.9475 39.9916 62.9084 43.7601 64.1456 44.5726C65.3829 45.385 68.4279 42.9336 70.947 39.0972Z" fill="#402EFF"/>
<path d="M64.2792 33.593C68.4726 31.7278 71.3843 29.1194 70.7827 27.767C70.1812 26.4146 66.2942 26.8304 62.1008 28.6957C57.9074 30.5609 54.9957 33.1693 55.5973 34.5217C56.1988 35.8741 60.0858 35.4583 64.2792 33.593Z" fill="#402EFF"/>
<path d="M70.2794 23.9745C70.5046 22.5116 67.0099 20.7597 62.4739 20.0615C57.9378 19.3633 54.078 19.9833 53.8529 21.4462C53.6277 22.9091 57.1224 24.6609 61.6585 25.3591C66.1945 26.0573 70.0543 25.4373 70.2794 23.9745Z" fill="#402EFF"/>
<path d="M71.908 20.4895C72.8882 19.3805 70.895 16.0176 67.4561 12.9783C64.0172 9.93901 60.4348 8.37425 59.4546 9.48331C58.4745 10.5924 60.4677 13.9553 63.9066 16.9946C67.3455 20.0339 70.9279 21.5986 71.908 20.4895Z" fill="#402EFF"/>
<path d="M75.1514 18.4528C76.5756 18.0498 76.7171 14.1431 75.4675 9.72707C74.2179 5.31098 72.0503 2.05774 70.6261 2.46075C69.2019 2.86376 69.0604 6.7704 70.31 11.1865C71.5596 15.6025 73.7272 18.8558 75.1514 18.4528Z" fill="#402EFF"/>
<path d="M83.9584 11.3239C85.2949 6.9333 85.2305 3.02461 83.8145 2.5936C82.3985 2.16258 80.1672 5.37244 78.8307 9.76303C77.4943 14.1536 77.5587 18.0623 78.9747 18.4933C80.3907 18.9243 82.622 15.7145 83.9584 11.3239Z" fill="#402EFF"/>
<path d="M90.2514 17.2565C93.7491 14.285 95.8077 10.9617 94.8493 9.83375C93.891 8.70575 90.2787 10.2002 86.7811 13.1716C83.2834 16.1431 81.2249 19.4664 82.1832 20.5944C83.1415 21.7224 86.7538 20.228 90.2514 17.2565Z" fill="#402EFF"/>
<path d="M92.3322 25.6519C96.8812 25.0433 100.41 23.3607 100.213 21.8936C100.017 20.4266 96.1704 19.7307 91.6214 20.3392C87.0725 20.9478 83.5439 22.6304 83.7402 24.0975C83.9365 25.5645 87.7832 26.2605 92.3322 25.6519Z" fill="#402EFF"/>
<path d="M98.2004 34.941C98.8285 33.6008 95.9688 30.9355 91.813 28.9879C87.6573 27.0403 83.7792 26.548 83.1511 27.8882C82.523 29.2285 85.3827 31.8938 89.5385 33.8414C93.6942 35.7889 97.5723 36.2813 98.2004 34.941Z" fill="#402EFF"/>
<path d="M89.4589 44.8299C90.7119 44.0421 89.7473 40.2537 87.3044 36.3684C84.8615 32.4831 81.8653 29.9722 80.6123 30.76C79.3593 31.5478 80.3239 35.3362 82.7668 39.2215C85.2097 43.1068 88.2059 45.6178 89.4589 44.8299Z" fill="#402EFF"/>
<path d="M12.662 75.64C13.7193 75.8653 14.5687 76.394 15.21 77.226C15.8513 78.0407 16.172 78.9767 16.172 80.034C16.172 81.5593 15.6347 82.7727 14.56 83.674C13.5027 84.558 12.0207 85 10.114 85H1.612V66.748H9.828C11.6827 66.748 13.13 67.1727 14.17 68.022C15.2273 68.8713 15.756 70.024 15.756 71.48C15.756 72.5547 15.47 73.4473 14.898 74.158C14.3433 74.8687 13.598 75.3627 12.662 75.64ZM6.058 74.132H8.97C9.698 74.132 10.2527 73.976 10.634 73.664C11.0327 73.3347 11.232 72.858 11.232 72.234C11.232 71.61 11.0327 71.1333 10.634 70.804C10.2527 70.4747 9.698 70.31 8.97 70.31H6.058V74.132ZM9.334 81.412C10.0793 81.412 10.6513 81.2473 11.05 80.918C11.466 80.5713 11.674 80.0773 11.674 79.436C11.674 78.7947 11.4573 78.292 11.024 77.928C10.608 77.564 10.0273 77.382 9.282 77.382H6.058V81.412H9.334ZM20.9867 68.984C20.2067 68.984 19.5653 68.7587 19.0627 68.308C18.5773 67.84 18.3347 67.268 18.3347 66.592C18.3347 65.8987 18.5773 65.3267 19.0627 64.876C19.5653 64.408 20.2067 64.174 20.9867 64.174C21.7493 64.174 22.3733 64.408 22.8587 64.876C23.3613 65.3267 23.6127 65.8987 23.6127 66.592C23.6127 67.268 23.3613 67.84 22.8587 68.308C22.3733 68.7587 21.7493 68.984 20.9867 68.984ZM23.1967 70.492V85H18.7507V70.492H23.1967ZM34.5046 81.23V85H32.2426C30.6306 85 29.374 84.61 28.4726 83.83C27.5713 83.0327 27.1206 81.7413 27.1206 79.956V74.184H25.3526V70.492H27.1206V66.956H31.5666V70.492H34.4786V74.184H31.5666V80.008C31.5666 80.4413 31.6706 80.7533 31.8786 80.944C32.0866 81.1347 32.4333 81.23 32.9186 81.23H34.5046ZM50.6571 77.512C50.6571 77.928 50.6311 78.3613 50.5791 78.812H40.5171C40.5865 79.7133 40.8725 80.4067 41.3751 80.892C41.8951 81.36 42.5278 81.594 43.2731 81.594C44.3825 81.594 45.1538 81.126 45.5871 80.19H50.3191C50.0765 81.1433 49.6345 82.0013 48.9931 82.764C48.3691 83.5267 47.5805 84.1247 46.6271 84.558C45.6738 84.9913 44.6078 85.208 43.4291 85.208C42.0078 85.208 40.7425 84.9047 39.6331 84.298C38.5238 83.6913 37.6571 82.8247 37.0331 81.698C36.4091 80.5713 36.0971 79.254 36.0971 77.746C36.0971 76.238 36.4005 74.9207 37.0071 73.794C37.6311 72.6673 38.4978 71.8007 39.6071 71.194C40.7165 70.5873 41.9905 70.284 43.4291 70.284C44.8331 70.284 46.0811 70.5787 47.1731 71.168C48.2651 71.7573 49.1145 72.598 49.7211 73.69C50.3451 74.782 50.6571 76.056 50.6571 77.512ZM46.1071 76.342C46.1071 75.5793 45.8471 74.9727 45.3271 74.522C44.8071 74.0713 44.1571 73.846 43.3771 73.846C42.6318 73.846 41.9991 74.0627 41.4791 74.496C40.9765 74.9293 40.6645 75.5447 40.5431 76.342H46.1071ZM66.0026 88.12L63.6626 84.974C62.9693 85.1127 62.2933 85.182 61.6346 85.182C59.9186 85.182 58.3413 84.7833 56.9026 83.986C55.4813 83.1887 54.346 82.0793 53.4966 80.658C52.6646 79.2193 52.2486 77.6073 52.2486 75.822C52.2486 74.0367 52.6646 72.4333 53.4966 71.012C54.346 69.5907 55.4813 68.4813 56.9026 67.684C58.3413 66.8867 59.9186 66.488 61.6346 66.488C63.3506 66.488 64.9193 66.8867 66.3406 67.684C67.7793 68.4813 68.906 69.5907 69.7206 71.012C70.5526 72.4333 70.9686 74.0367 70.9686 75.822C70.9686 77.382 70.648 78.812 70.0066 80.112C69.3826 81.3947 68.5073 82.4607 67.3806 83.31L71.3846 88.12H66.0026ZM56.7986 75.822C56.7986 77.434 57.232 78.7253 58.0986 79.696C58.9826 80.6493 60.1613 81.126 61.6346 81.126C63.0906 81.126 64.252 80.6407 65.1186 79.67C66.0026 78.6993 66.4446 77.4167 66.4446 75.822C66.4446 74.21 66.0026 72.9273 65.1186 71.974C64.252 71.0033 63.0906 70.518 61.6346 70.518C60.1613 70.518 58.9826 70.9947 58.0986 71.948C57.232 72.9013 56.7986 74.1927 56.7986 75.822ZM87.8189 70.492V85H83.3729V83.024C82.9222 83.6653 82.3069 84.1853 81.5269 84.584C80.7642 84.9653 79.9149 85.156 78.9789 85.156C77.8695 85.156 76.8902 84.9133 76.0409 84.428C75.1915 83.9253 74.5329 83.206 74.0649 82.27C73.5969 81.334 73.3629 80.2333 73.3629 78.968V70.492H77.7829V78.37C77.7829 79.3407 78.0342 80.0947 78.5369 80.632C79.0395 81.1693 79.7155 81.438 80.5649 81.438C81.4315 81.438 82.1162 81.1693 82.6189 80.632C83.1215 80.0947 83.3729 79.3407 83.3729 78.37V70.492H87.8189ZM93.2484 68.984C92.4684 68.984 91.8271 68.7587 91.3244 68.308C90.8391 67.84 90.5964 67.268 90.5964 66.592C90.5964 65.8987 90.8391 65.3267 91.3244 64.876C91.8271 64.408 92.4684 64.174 93.2484 64.174C94.0111 64.174 94.6351 64.408 95.1204 64.876C95.6231 65.3267 95.8744 65.8987 95.8744 66.592C95.8744 67.268 95.6231 67.84 95.1204 68.308C94.6351 68.7587 94.0111 68.984 93.2484 68.984ZM95.4584 70.492V85H91.0124V70.492H95.4584ZM102.84 81.334H109.132V85H97.8744V81.464L103.906 74.158H97.9264V70.492H109.002V74.028L102.84 81.334ZM115.739 81.334H122.031V85H110.773V81.464L116.805 74.158H110.825V70.492H121.901V74.028L115.739 81.334ZM138.153 77.512C138.153 77.928 138.127 78.3613 138.075 78.812H128.013C128.083 79.7133 128.369 80.4067 128.871 80.892C129.391 81.36 130.024 81.594 130.769 81.594C131.879 81.594 132.65 81.126 133.083 80.19H137.815C137.573 81.1433 137.131 82.0013 136.489 82.764C135.865 83.5267 135.077 84.1247 134.123 84.558C133.17 84.9913 132.104 85.208 130.925 85.208C129.504 85.208 128.239 84.9047 127.129 84.298C126.02 83.6913 125.153 82.8247 124.529 81.698C123.905 80.5713 123.593 79.254 123.593 77.746C123.593 76.238 123.897 74.9207 124.503 73.794C125.127 72.6673 125.994 71.8007 127.103 71.194C128.213 70.5873 129.487 70.284 130.925 70.284C132.329 70.284 133.577 70.5787 134.669 71.168C135.761 71.7573 136.611 72.598 137.217 73.69C137.841 74.782 138.153 76.056 138.153 77.512ZM133.603 76.342C133.603 75.5793 133.343 74.9727 132.823 74.522C132.303 74.0713 131.653 73.846 130.873 73.846C130.128 73.846 129.495 74.0627 128.975 74.496C128.473 74.9293 128.161 75.5447 128.039 76.342H133.603ZM146.401 85.208C145.135 85.208 144.009 84.9913 143.021 84.558C142.033 84.1247 141.253 83.5353 140.681 82.79C140.109 82.0273 139.788 81.178 139.719 80.242H144.113C144.165 80.7447 144.399 81.152 144.815 81.464C145.231 81.776 145.742 81.932 146.349 81.932C146.903 81.932 147.328 81.828 147.623 81.62C147.935 81.3947 148.091 81.1087 148.091 80.762C148.091 80.346 147.874 80.0427 147.441 79.852C147.007 79.644 146.305 79.4187 145.335 79.176C144.295 78.9333 143.428 78.682 142.735 78.422C142.041 78.1447 141.443 77.72 140.941 77.148C140.438 76.5587 140.187 75.77 140.187 74.782C140.187 73.95 140.412 73.196 140.863 72.52C141.331 71.8267 142.007 71.2807 142.891 70.882C143.792 70.4833 144.858 70.284 146.089 70.284C147.909 70.284 149.339 70.7347 150.379 71.636C151.436 72.5373 152.043 73.7333 152.199 75.224H148.091C148.021 74.7213 147.796 74.3227 147.415 74.028C147.051 73.7333 146.565 73.586 145.959 73.586C145.439 73.586 145.04 73.69 144.763 73.898C144.485 74.0887 144.347 74.3573 144.347 74.704C144.347 75.12 144.563 75.432 144.997 75.64C145.447 75.848 146.141 76.056 147.077 76.264C148.151 76.5413 149.027 76.8187 149.703 77.096C150.379 77.356 150.968 77.7893 151.471 78.396C151.991 78.9853 152.259 79.7827 152.277 80.788C152.277 81.6373 152.034 82.4 151.549 83.076C151.081 83.7347 150.396 84.2547 149.495 84.636C148.611 85.0173 147.579 85.208 146.401 85.208Z" fill="#090629"/>
</svg>
